<mxfile host="Electron" agent="Mozilla/5.0 (Macintosh; Intel Mac OS X 10_15_7) AppleWebKit/537.36 (KHTML, like Gecko) draw.io/26.2.2 Chrome/134.0.6998.178 Electron/35.1.2 Safari/537.36" version="26.2.2">
  <diagram id="diagramId" name="Page-1">
    <mxGraphModel dx="882" dy="859" grid="1" gridSize="10" guides="1" tooltips="1" connect="1" arrows="1" fold="1" page="1" pageScale="1" pageWidth="827" pageHeight="1169" math="0" shadow="0">
      <root>
        <mxCell id="0" />
        <mxCell id="1" parent="0" />
        <mxCell id="2" value="Note&#xa;─────────────&#xa;+ title: CharField&#xa;+ content: TextField&#xa;+ created_at: DateTimeField&#xa;+ author: ForeignKey(Author)&#xa;─────────────&#xa;+ __str__()" style="shape=rectangle;whiteSpace=wrap;html=1;fontSize=12;" parent="1" vertex="1">
          <mxGeometry x="50" y="50" width="220" height="140" as="geometry" />
        </mxCell>
        <mxCell id="3" value="Author&#xa;─────────────&#xa;+ name: CharField&#xa;─────────────&#xa;+ __str__()" style="shape=rectangle;whiteSpace=wrap;html=1;fontSize=12;" parent="1" vertex="1">
          <mxGeometry x="350" y="50" width="220" height="100" as="geometry" />
        </mxCell>
        <mxCell id="5" value="NoteForm (ModelForm)&#xa;─────────────&#xa;+ content: CharField (widget=CKEditor5Widget)&#xa;─────────────&#xa;Meta:&#xa;  model: Note&#xa;  fields: [title, content]" style="shape=rectangle;whiteSpace=wrap;html=1;fontSize=12;fontStyle=italic;" parent="1" vertex="1">
          <mxGeometry x="220" y="360" width="260" height="140" as="geometry" />
        </mxCell>
        <mxCell id="4" value="FK" style="edgeStyle=orthogonalEdgeStyle;dashed=0;rounded=0;html=1;exitX=1;exitY=0.5;exitPerimeter=1;entryX=0;entryY=0.5;entryPerimeter=1;" parent="1" source="2" target="3" edge="1">
          <mxGeometry relative="1" as="geometry" />
        </mxCell>
        <mxCell id="6" value="model" style="edgeStyle=elbowEdgeStyle;dashed=1;rounded=0;html=1;exitX=0;exitY=0.5;exitDx=0;exitDy=0;entryX=0.5;entryY=1;entryDx=0;entryDy=0;" parent="1" target="2" edge="1">
          <mxGeometry relative="1" as="geometry">
            <mxPoint x="220" y="430" as="sourcePoint" />
            <mxPoint x="160" y="290" as="targetPoint" />
            <Array as="points">
              <mxPoint x="160" y="250" />
            </Array>
          </mxGeometry>
        </mxCell>
      </root>
    </mxGraphModel>
  </diagram>
</mxfile>
